HIERARCHY
ROOT Hips
{
	OFFSET 0.000000 0.000000 0.000000
	CHANNELS 6 Xposition Yposition Zposition Xrotation Yrotation Zrotation
	JOINT LeftUpLeg_virtual
	{
		OFFSET 0.000000 0.000000 0.000000
		CHANNELS 3 Xrotation Yrotation Zrotation
		JOINT LeftUpLeg
		{
			OFFSET 10.205400 -3.823500 0.155100
			CHANNELS 3 Xrotation Yrotation Zrotation
			JOINT LeftLeg
			{
				OFFSET 0.708757 -12.982077 0.567790
				CHANNELS 3 Xrotation Yrotation Zrotation
				JOINT LeftFoot
				{
					OFFSET -0.708756 -10.717838 -2.184338
					CHANNELS 3 Xrotation Yrotation Zrotation
					JOINT LeftToeBase
					{
						OFFSET 0.108149 -7.191104 7.560241
						CHANNELS 3 Xrotation Yrotation Zrotation
						JOINT LeftToe_End
						{
							OFFSET 0.070230 0.081724 4.490308
							CHANNELS 3 Xrotation Yrotation Zrotation
							End Site
							{
								OFFSET 0 0 0
							}
						}
					}
				}
			}
		}
	}
	JOINT RightUpLeg_virtual
	{
		OFFSET 0.000000 0.000000 0.000000
		CHANNELS 3 Xrotation Yrotation Zrotation
		JOINT RightUpLeg
		{
			OFFSET -10.205400 -3.823500 0.005500
			CHANNELS 3 Xrotation Yrotation Zrotation
			JOINT RightLeg
			{
				OFFSET -0.708756 -12.982134 0.610632
				CHANNELS 3 Xrotation Yrotation Zrotation
				JOINT RightFoot
				{
					OFFSET 0.708754 -10.717769 -1.945823
					CHANNELS 3 Xrotation Yrotation Zrotation
					JOINT RightToeBase
					{
						OFFSET -0.108140 -7.191069 7.372968
						CHANNELS 3 Xrotation Yrotation Zrotation
						JOINT RightToe_End
						{
							OFFSET -0.070227 0.081735 4.479403
							CHANNELS 3 Xrotation Yrotation Zrotation
							End Site
							{
								OFFSET 0 0 0
							}
						}
					}
				}
			}
		}
	}
	JOINT Spine_virtual
	{
		OFFSET 0.000000 0.000000 0.000000
		CHANNELS 3 Xrotation Yrotation Zrotation
		JOINT Spine
		{
			OFFSET 0.000000 6.876099 0.125700
			CHANNELS 3 Xrotation Yrotation Zrotation
			JOINT Spine1
			{
				OFFSET 0.000000 5.730043 0.104720
				CHANNELS 3 Xrotation Yrotation Zrotation
				JOINT Spine1_split
				{
					OFFSET 0.000000 5.730043 0.104720
					CHANNELS 3 Xrotation Yrotation Zrotation
					JOINT Spine2
					{
						OFFSET 0.000000 5.730043 0.104720
						CHANNELS 3 Xrotation Yrotation Zrotation
						JOINT Neck_virtual
						{
							OFFSET 0.000000 0.000000 0.000000
							CHANNELS 3 Xrotation Yrotation Zrotation
							JOINT Neck
							{
								OFFSET 0.000000 10.314075 0.188496
								CHANNELS 3 Xrotation Yrotation Zrotation
								JOINT Head
								{
									OFFSET 0.000000 7.643700 -2.377400
									CHANNELS 3 Xrotation Yrotation Zrotation
									JOINT HeadTop_End
									{
										OFFSET 0.000000 43.788605 -13.619600
										CHANNELS 3 Xrotation Yrotation Zrotation
										End Site
										{
											OFFSET 0 0 0
										}
									}
								}
							}
						}
						JOINT LeftShoulder_virtual
						{
							OFFSET 0.000000 0.000000 0.000000
							CHANNELS 3 Xrotation Yrotation Zrotation
							JOINT LeftShoulder
							{
								OFFSET 2.196100 4.412489 0.087492
								CHANNELS 3 Xrotation Yrotation Zrotation
								JOINT LeftShoulder_split
								{
									OFFSET 2.196100 4.412489 0.087492
									CHANNELS 3 Xrotation Yrotation Zrotation
									JOINT LeftArm
									{
										OFFSET 8.771219 -2.981674 -0.026999
										CHANNELS 3 Xrotation Yrotation Zrotation
										JOINT LeftForeArm
										{
											OFFSET 8.512804 0.000000 -0.000000
											CHANNELS 3 Xrotation Yrotation Zrotation
											JOINT LeftHand
											{
												OFFSET 18.484802 0.000000 -0.000000
												CHANNELS 3 Xrotation Yrotation Zrotation
												End Site
												{
													OFFSET 0 0 0
												}
											}
										}
									}
								}
							}
						}
						JOINT RightShoulder_virtual
						{
							OFFSET 0.000000 0.000000 0.000000
							CHANNELS 3 Xrotation Yrotation Zrotation
							JOINT RightShoulder
							{
								OFFSET -2.196100 4.412496 0.070690
								CHANNELS 3 Xrotation Yrotation Zrotation
								JOINT RightShoulder_split
								{
									OFFSET -2.196100 4.412496 0.070690
									CHANNELS 3 Xrotation Yrotation Zrotation
									JOINT RightArm
									{
										OFFSET -8.771282 -2.981682 -0.094208
										CHANNELS 3 Xrotation Yrotation Zrotation
										JOINT RightForeArm
										{
											OFFSET -8.494598 0.000000 0.000000
											CHANNELS 3 Xrotation Yrotation Zrotation
											JOINT RightHand
											{
												OFFSET -18.483803 0.000000 0.000001
												CHANNELS 3 Xrotation Yrotation Zrotation
												End Site
												{
													OFFSET 0 0 0
												}
											}
										}
									}
								}
							}
						}
					}
				}
			}
		}
	}
}
MOTION
Frames: 9
Frame Time: 0.03333333
-13.408437 17.505615 119.003906 0.000000 0.000000 0.000000 -172.467659 14.583767 -179.685844 -98.579007 -12.657319 34.716069 103.704278 -4.937592 -4.515250 16.543048 -6.914753 15.214064 -6.941765 0.948920 0.272264 0.000000 0.000000 0.000000 -172.599386 12.976895 179.565728 -94.425275 15.584569 -24.172760 109.757807 3.818559 3.403359 -2.905251 1.196447 -13.966324 3.784117 2.127752 1.213412 0.000000 0.000000 0.000000 -172.617622 15.458265 -178.711558 18.284755 -4.282923 -7.981576 4.102361 -0.249170 -2.629529 0.897660 -0.536303 0.449638 0.000000 0.000000 0.000000 4.618836 -0.810469 -1.798488 -1.715015 -0.194689 -1.048520 -20.089615 -0.058884 7.576747 0.000000 0.000000 0.000000 3.815411 -0.510273 -2.424478 1.035445 -2.788329 -11.335485 -3.643357 0.382643 1.673712 -15.083655 -40.291569 -44.349999 0.446705 -58.697013 0.942879 0.000000 0.000000 0.000000 4.982235 -0.614936 -1.853378 -2.665718 19.546118 -1.163735 -1.465702 1.067709 0.606365 -25.374844 26.157195 30.242698 -179.731223 68.738238 179.580290 0.000000 0.000000 0.000000 
-13.400831 17.505775 118.993889 0.000000 0.000000 0.000000 -172.507260 14.635564 -179.727330 -98.609073 -12.722955 34.666516 103.782081 -4.940535 -4.525691 16.551307 -6.873932 15.244164 -6.950441 0.951058 0.233708 0.000000 0.000000 0.000000 -172.645039 12.999618 179.531536 -94.491979 15.495201 -24.206696 109.734400 3.822210 3.446853 -2.864293 1.158018 -13.984343 3.816478 2.112687 1.213669 0.000000 0.000000 0.000000 -172.663084 15.495812 -178.720342 18.207536 -4.227272 -8.016518 4.073748 -0.235401 -2.634199 0.897255 -0.543705 0.454250 0.000000 0.000000 0.000000 4.590181 -0.780787 -1.828490 -1.694819 -0.328422 -0.982258 -20.844180 -0.212694 7.662472 0.000000 0.000000 0.000000 3.833188 -0.499970 -2.435827 1.017770 -2.786342 -11.340166 -3.838571 0.483589 1.601400 -15.039407 -40.410616 -44.293391 0.516598 -58.561502 1.012638 0.000000 0.000000 0.000000 4.970463 -0.591160 -1.876578 -2.979835 18.713142 -2.064499 -1.388719 1.027759 0.618507 -27.037469 26.414708 30.757640 -179.994691 67.872915 179.970840 0.000000 0.000000 0.000000 
-13.395135 17.506777 118.988243 0.000000 0.000000 0.000000 -172.546602 14.705609 -179.782709 -98.646640 -12.784760 34.605792 103.840643 -4.931996 -4.515164 16.578969 -6.829372 15.262449 -6.961515 0.952109 0.195846 0.000000 0.000000 0.000000 -172.688465 13.044692 179.482577 -94.555643 15.396691 -24.246507 109.717884 3.829545 3.487360 -2.798107 1.111261 -13.992206 3.836140 2.097874 1.209503 0.000000 0.000000 0.000000 -172.706005 15.557074 -178.751433 18.127469 -4.184454 -8.032990 4.052381 -0.232300 -2.630525 0.896687 -0.561407 0.458756 0.000000 0.000000 0.000000 4.569765 -0.758593 -1.849835 -1.686889 -0.454007 -0.925715 -21.552015 -0.389932 7.740467 0.000000 0.000000 0.000000 3.871464 -0.504159 -2.434813 0.997007 -2.809041 -11.392770 -4.025057 0.545607 1.559077 -14.931045 -40.516225 -44.232722 0.567814 -58.480933 1.041832 0.000000 0.000000 0.000000 4.964640 -0.579913 -1.888430 -3.251185 18.006581 -2.767189 -1.274770 0.973500 0.588870 -28.535374 26.698928 31.080981 179.863825 67.301269 -179.762178 0.000000 0.000000 0.000000 
-13.392922 17.509571 118.985825 0.000000 0.000000 0.000000 -172.587132 14.797236 -179.845971 -98.690476 -12.834112 34.533392 103.870723 -4.916076 -4.487251 16.627366 -6.787711 15.262078 -6.982458 0.950192 0.165851 0.000000 0.000000 0.000000 -172.729801 13.118246 179.422321 -94.608686 15.295700 -24.291324 109.698739 3.834564 3.526682 -2.732128 1.058036 -14.007123 3.867687 2.083972 1.206003 0.000000 0.000000 0.000000 -172.745142 15.640293 -178.806115 18.043586 -4.152940 -8.032004 4.039303 -0.238470 -2.618508 0.918086 -0.579150 0.453328 0.000000 0.000000 0.000000 4.557738 -0.744685 -1.860056 -1.684554 -0.571429 -0.883146 -22.217118 -0.585414 7.803888 0.000000 0.000000 0.000000 3.920178 -0.518101 -2.421596 0.974304 -2.855684 -11.475736 -4.227855 0.569150 1.557218 -14.768699 -40.599997 -44.155039 0.571834 -58.431456 1.013894 0.000000 0.000000 0.000000 4.960417 -0.579689 -1.888349 -3.482227 17.401669 -3.314168 -1.141169 0.883729 0.536881 -29.896421 27.018458 31.253716 179.812393 66.861091 -179.600289 0.000000 0.000000 0.000000 
-13.393997 17.513168 118.986710 0.000000 0.000000 0.000000 -172.626734 14.908875 -179.913630 -98.735446 -12.868885 34.447666 103.875580 -4.897543 -4.444862 16.691644 -6.749881 15.246326 -7.011666 0.944865 0.143927 0.000000 0.000000 0.000000 -172.769512 13.218956 179.359538 -94.650228 15.203953 -24.339161 109.676739 3.835073 3.564939 -2.675778 1.003402 -14.037987 3.914714 2.071747 1.206306 0.000000 0.000000 0.000000 -172.780550 15.738899 -178.875920 17.955404 -4.130247 -8.018999 4.033100 -0.250077 -2.601327 0.958659 -0.605273 0.443695 0.000000 0.000000 0.000000 4.550149 -0.738377 -1.861802 -1.682104 -0.681276 -0.856142 -22.840381 -0.787400 7.847764 0.000000 0.000000 0.000000 3.971119 -0.537353 -2.401195 0.952149 -2.917648 -11.567530 -4.435578 0.570891 1.583975 -14.575859 -40.651100 -44.058818 0.511939 -58.377490 0.929642 0.000000 0.000000 0.000000 4.954080 -0.587716 -1.879682 -3.686572 16.860150 -3.767566 -1.040444 0.754148 0.467402 -31.161819 27.361420 31.356282 179.820767 66.431055 -179.529487 0.000000 0.000000 0.000000 
-13.398474 17.516937 118.989037 0.000000 0.000000 0.000000 -172.664477 15.034956 -179.978408 -98.777431 -12.890520 34.349547 103.859843 -4.879269 -4.395059 16.758281 -6.714469 15.219658 -7.037487 0.936289 0.125346 0.000000 0.000000 0.000000 -172.807324 13.335257 179.298941 -94.686482 15.132352 -24.390044 109.653162 3.834277 3.598996 -2.620173 0.952053 -14.073046 3.962819 2.061039 1.208593 0.000000 0.000000 0.000000 -172.810548 15.848114 -178.955491 17.865401 -4.113712 -8.001515 4.030355 -0.263344 -2.583043 0.999234 -0.617543 0.432386 0.000000 0.000000 0.000000 4.539889 -0.736830 -1.857815 -1.673520 -0.785881 -0.843933 -23.420842 -0.985631 7.873784 0.000000 0.000000 0.000000 4.012690 -0.557962 -2.379897 0.931206 -2.985186 -11.659107 -4.636483 0.560916 1.632227 -14.366220 -40.657333 -43.934191 0.391020 -58.277810 0.800423 0.000000 0.000000 0.000000 4.942124 -0.599306 -1.867503 -3.878260 16.354217 -4.180335 -0.947189 0.635791 0.368710 -32.389543 27.665551 31.478450 179.864235 65.982564 -179.534268 0.000000 0.000000 0.000000 
-13.405024 17.520561 118.991936 0.000000 0.000000 0.000000 -172.699885 15.165148 179.965690 -98.810393 -12.905281 34.240626 103.832092 -4.862694 -4.347137 16.810737 -6.677528 15.190650 -7.051330 0.924918 0.104073 0.000000 0.000000 0.000000 -172.843360 13.457763 179.244395 -94.723133 15.084966 -24.438144 109.629857 3.839708 3.620641 -2.563227 0.915020 -14.087112 3.994095 2.050421 1.208517 0.000000 0.000000 0.000000 -172.835847 15.962586 -179.031826 17.775675 -4.101566 -7.986830 4.027567 -0.276020 -2.565121 1.037856 -0.633453 0.434827 0.000000 0.000000 0.000000 4.521703 -0.739019 -1.852987 -1.662501 -0.888712 -0.842767 -23.969629 -1.171271 7.877719 0.000000 0.000000 0.000000 4.040183 -0.576351 -2.363950 0.911367 -3.048323 -11.743569 -4.808074 0.547887 1.677155 -14.171148 -40.628574 -43.804271 0.229321 -58.126904 0.652207 0.000000 0.000000 0.000000 4.924024 -0.610180 -1.855689 -4.075445 15.866748 -4.590248 -0.855415 0.535268 0.277629 -33.580632 27.898591 31.677632 179.903303 65.558218 -179.578200 0.000000 0.000000 0.000000 
-13.412666 17.523441 118.992554 0.000000 0.000000 0.000000 -172.733012 15.289443 179.923753 -98.832578 -12.919713 34.125053 103.795981 -4.851736 -4.306811 16.840205 -6.639042 15.162030 -7.054322 0.911731 0.079076 0.000000 0.000000 0.000000 -172.878003 13.574712 179.200108 -94.759647 15.059701 -24.481386 109.612098 3.853758 3.626872 -2.509931 0.899900 -14.073883 4.005823 2.039902 1.204347 0.000000 0.000000 0.000000 -172.857444 16.075793 -179.093994 17.689309 -4.094059 -7.980837 4.022161 -0.286910 -2.549646 1.057663 -0.647015 0.458061 0.000000 0.000000 0.000000 4.495594 -0.743352 -1.849772 -1.650201 -0.988455 -0.851287 -24.492869 -1.333032 7.855501 0.000000 0.000000 0.000000 4.048725 -0.592609 -2.355280 0.890808 -3.098708 -11.823941 -4.935285 0.512277 1.705132 -13.989423 -40.584499 -43.673012 0.071664 -57.963226 0.521462 0.000000 0.000000 0.000000 4.898385 -0.618896 -1.846168 -4.290802 15.387289 -5.006749 -0.745392 0.469876 0.194753 -34.706732 28.043331 31.984512 179.929463 65.224536 -179.645586 0.000000 0.000000 0.000000 
-13.419420 17.526121 118.990067 0.000000 0.000000 0.000000 -172.765032 15.402652 179.897183 -98.845500 -12.942061 34.011958 103.753360 -4.853182 -4.279950 16.853782 -6.604848 15.128966 -7.058218 0.897072 0.054341 0.000000 0.000000 0.000000 -172.911020 13.680252 179.164591 -94.794488 15.045211 -24.518957 109.604544 3.872421 3.624052 -2.471111 0.904638 -14.046344 4.021032 2.029963 1.198104 0.000000 0.000000 0.000000 -172.876678 16.184398 -179.138308 17.606600 -4.092001 -7.986772 4.016442 -0.295398 -2.536998 1.071286 -0.652091 0.473442 0.000000 0.000000 0.000000 4.465609 -0.748846 -1.849105 -1.642858 -1.084280 -0.871016 -24.999163 -1.458550 7.800657 0.000000 0.000000 0.000000 4.039837 -0.605156 -2.352543 0.868574 -3.133305 -11.905500 -5.032118 0.457531 1.715178 -13.820963 -40.542459 -43.542412 -0.049099 -57.815769 0.431986 0.000000 0.000000 0.000000 4.866453 -0.625235 -1.839333 -4.534814 14.911546 -5.427616 -0.618068 0.428633 0.146928 -35.718662 28.112587 32.383645 179.937058 65.028004 -179.712796 0.000000 0.000000 0.000000 
